<mxfile host="app.diagrams.net" modified="2023-10-29T22:19:45.091Z" agent="Mozilla/5.0 (Windows NT 10.0; Win64; x64) AppleWebKit/537.36 (KHTML, like Gecko) Chrome/116.0.0.0 Safari/537.36 OPR/102.0.0.0" version="22.0.8" etag="OVWnswNa2wyRh8Eap70s" type="github">
  <diagram name="Страница — 1" id="yy4N7XBhDGdxo2Ysw7cI">
    <mxGraphModel>
      <root>
        <mxCell id="0" />
        <mxCell id="1" parent="0" />
      </root>
    </mxGraphModel>
  </diagram>
</mxfile>
